<svg xmlns="http://www.w3.org/2000/svg" width="637.591" height="903.873">
	<g transform="translate(-1260.364 -127.71)">
		<path d="m1371.465 898.837c-7.854 26.085-31.403 16.585-31.404 16.585" stroke="#000" stroke-width="4.358" fill="none"/>
		<g fill="#8f0054" stroke="#000">
			<path d="m1419.999 599.792l-61.429-38.571-32.857 58.571 54.286 32.857" stroke-width="12"/>
			<path d="m1351.405 639.029c0 13.869-14.711 25.112-32.858 25.112s-32.858-11.243-32.858-25.112c0-13.869 14.711-25.112 32.858-25.112s32.858 11.243 32.858 25.112z" stroke-width="12.203" stroke-linecap="round" stroke-linejoin="round"/>
			<path d="m1400.916 538.397c4.452 16.134-3.274 32.341-17.257 36.2-13.983 3.858-28.928-6.093-33.379-22.227-4.452-16.134 3.274-32.341 17.257-36.2 13.983-3.858 28.928 6.093 33.379 22.227z" stroke-width="12" stroke-linecap="round" stroke-linejoin="round"/>
			<path d="m1358.544 609.151c-2.214 13.989-19.981 21.584-39.684 16.964-19.703-4.619-33.88-19.704-31.665-33.693 2.214-13.989 19.981-21.584 39.684-16.965 19.703 4.619 33.88 19.704 31.665 33.693z" stroke-width="11.95" stroke-linecap="round" stroke-linejoin="round"/>
			<path d="m1368.544 567.722c-2.214 13.989-19.981 21.584-39.684 16.964-19.703-4.619-33.88-19.704-31.665-33.693 2.214-13.989 19.981-21.584 39.684-16.965 19.703 4.619 33.88 19.704 31.665 33.693z" stroke-width="11.95" stroke-linecap="round" stroke-linejoin="round"/>
		</g>
		<path d="m1381.525 774.607l-34.345 28.284c10.456-65.3-9.049-75.671-30.305-82.833-42.391-20.147-85.843 136.111 2.02 165.665 35.999 12.109 73.5-74.365 113.137-64.65" fill="#8f0054" stroke="#000" stroke-width="15"/>
		<path d="m1592.598 305.017c-77.083-3.121-158.873-17.554-207.606 16.862-29.972 26.453-31.944 85.204-39.006 125.35-7.062 40.146 36.094 63.591 67.154 68.796 31.06 5.205 111.879 12.809 111.879 12.809s-202.575 70.524-154.875 208.044c55.764 160.765 259.376 121.195 259.376 121.195s-1.552 25.821 25.272 57.325c26.825 31.504 82.71-14.572 49.343 14.385-14.374 26.145-45.615 77.22-1.878 91.637 28.476 8.021 65.255-2.043 78.073-30.629-3.252-36.678 14.174-92.027-11.114-118.611-14.417-10.588-32.991 10.406-44.93 3.741-11.939-6.664-19.264-28.865-19.264-28.865s182.916-63.276 159.526-259.213c-17.932-150.218-34.921-204.09-81.358-230.509-54.721-35.176-113.51-49.197-190.593-52.318z" fill="#8f0054" stroke="#000" stroke-width="15"/>
		<g fill="#8f0054" stroke="#000">
			<path d="m1485.522 616.043c50.752 126.463 129.518 25.393 145.462-46.467" stroke-width="15"/>
			<path d="m1612.801 553.413c19.53 17.566 39.059 19.456 58.589 10.102" stroke-width="10"/>
		</g>
		<path d="m1754.773 569.128c42.426 8.081 66.67 24.244 64.65 50.508-2.02 26.264 8.081-16.162 38.386-12.122 30.305 4.041 39.344 30.335 30.305 46.467-11.526 20.571-70.711-2.02-70.711-2.02s62.63 2.02 42.426 48.487c-20.203 46.467-56.569-22.223-56.569-22.223s40.691 64.405-6.061 68.69c-32.311 4.616-28.284-44.447-18.183-54.548 10.101-10.102-32.325 70.711-54.548 22.223-22.223-48.487 50.508-44.447 50.508-44.447s-22.223-40.406-52.528-40.406" fill="#8f0054" stroke="#000" stroke-width="13"/>
		<g stroke="#000" fill="none">
			<path d="m1811.463 858.924c21.067 11.208 22.761 15.381 11.919 39.445" stroke-width="5"/>
			<path d="m1837.065 858.261c15.668 8.14 16.928 11.171 8.864 28.648" stroke-width="3.675"/>
		</g>
		<g stroke="#000">
			<path d="m888.934 349.66a38.386 45.457 0 1 1-76.772 0 38.386 45.457 0 1 1 76.772 0z" transform="matrix(1.129 .351 -.358 1.107 789.758 -278.519)" fill="#fff" stroke-width="12.791" stroke-linecap="round" stroke-linejoin="round"/>
			<path d="m157.584 304.203a11.112 10.102 0 1 1-22.223 0 11.112 10.102 0 1 1 22.223 0z" transform="matrix(.732 0 0 1.005 1506.564 74.824)" stroke-width="15" stroke-linecap="round" stroke-linejoin="round"/>
			<path d="m1712.347 369.118c14.194 21.388 26.067 42.486-2.02 58.589" fill="#8f0054" stroke-width="10"/>
			<path d="m1639.616 451.95s-.377 30.308 10.102 38.386c11.2 8.634 33.365-10.858 42.426 0 4.824 5.781-9.499 17.038-4.041 22.223 8.527 8.101 32.325-12.122 32.325-12.122" stroke-width="5" fill="none"/>
		</g>
		<path d="m1445.397 295.261z" fill="#8f0054" fill-rule="evenodd"/>
		<path d="m1429.825 137.612c74.821 51.963 169.68 70.529 276.782 68.69" stroke="#000" stroke-width="15" fill="none" transform="translate(114.286 122.857)"/>
		<path d="m1482.353 159.835l16.162-147.482 224.254 54.548-76.772 137.381c-59.771-4.37-119.639-8.545-163.645-44.447z" stroke="#000" stroke-width="15" transform="translate(114.286 122.857)"/>
		<path d="m1735.594 261.437l21.213 1.01 23.233-52.528h-21.213z" fill="#fff"/>
		<path d="m1713.371 309.925l21.213 1.01 14.142-30.305h-24.244z" fill="#fff"/>
	</g>
</svg>